<svg xmlns="http://www.w3.org/2000/svg" viewBox="0 0 64 64" role="img" aria-labelledby="title">
  <title id="title">ConcurseiroPro</title>
  <defs>
    <linearGradient id="bg" x1="10" x2="54" y1="6" y2="58" gradientUnits="userSpaceOnUse">
      <stop stop-color="#5EA2FF"/>
      <stop offset=".48" stop-color="#5867F4"/>
      <stop offset="1" stop-color="#8D6BFF"/>
    </linearGradient>
    <linearGradient id="shine" x1="18" x2="46" y1="12" y2="48" gradientUnits="userSpaceOnUse">
      <stop stop-color="#FFFFFF" stop-opacity=".95"/>
      <stop offset=".55" stop-color="#DDEBFF" stop-opacity=".78"/>
      <stop offset="1" stop-color="#A9C9FF" stop-opacity=".92"/>
    </linearGradient>
    <filter id="shadow" width="80" height="80" x="-8" y="-6" color-interpolation-filters="sRGB" filterUnits="userSpaceOnUse">
      <feDropShadow dx="0" dy="8" flood-color="#102A63" flood-opacity=".28" stdDeviation="5"/>
    </filter>
  </defs>
  <rect width="64" height="64" fill="#070B16" rx="16"/>
  <path fill="url(#bg)" d="M32 6 51.05 13.6c1.18.47 1.95 1.62 1.95 2.89v15.75C53 44.18 44.3 55.06 32 58 19.7 55.06 11 44.18 11 32.24V16.49c0-1.27.77-2.42 1.95-2.89L32 6Z" filter="url(#shadow)"/>
  <path fill="#09111F" fill-opacity=".18" d="M32 10.1 48.3 16.6v15.15c0 9.64-6.66 18.52-16.3 21.78-9.64-3.26-16.3-12.14-16.3-21.78V16.6L32 10.1Z"/>
  <path fill="none" stroke="#FFFFFF" stroke-linecap="round" stroke-opacity=".42" stroke-width="2" d="M21 20.4c3.25-1.6 7.28-1.14 11 1.25 3.72-2.39 7.75-2.85 11-1.25v20.2c-3.25-1.6-7.28-1.14-11 1.25-3.72-2.39-7.75-2.85-11-1.25V20.4Z"/>
  <path fill="url(#shine)" d="M25.15 29.8c0-5.36 3.03-9.05 7.79-9.05 3.68 0 6.2 2.06 6.98 5.45h-4.4c-.52-1.21-1.39-1.86-2.62-1.86-2.08 0-3.26 2.08-3.26 5.42 0 3.39 1.18 5.49 3.28 5.49 1.32 0 2.2-.69 2.7-2.04h4.43c-.76 3.53-3.39 5.64-7.11 5.64-4.76 0-7.79-3.69-7.79-9.05Z"/>
  <path fill="#FFFFFF" d="M40.5 29.05h3.4v2.73h-3.4v3.52h-2.88v-3.52h-3.4v-2.73h3.4v-3.5h2.88v3.5Z" opacity=".96"/>
  <path fill="#B9D7FF" d="M20 48.3c4.3.2 8.08 1.2 12 3.28 3.92-2.08 7.7-3.08 12-3.28-3.05 2.77-7.1 4.8-12 6.12-4.9-1.32-8.95-3.35-12-6.12Z" opacity=".72"/>
</svg>
